<svg xmlns="http://www.w3.org/2000/svg" viewBox="0 0 500 500"><g id="freepik--background-complete--inject-17"><rect x="416.78" y="398.49" width="33.12" height="0.25" style="fill:#ebebeb"></rect><rect x="322.53" y="401.21" width="8.69" height="0.25" style="fill:#ebebeb"></rect><rect x="396.59" y="389.21" width="19.19" height="0.25" style="fill:#ebebeb"></rect><rect x="52.46" y="390.89" width="43.19" height="0.25" style="fill:#ebebeb"></rect><rect x="104.56" y="390.89" width="6.33" height="0.25" style="fill:#ebebeb"></rect><rect x="131.47" y="395.11" width="93.68" height="0.25" style="fill:#ebebeb"></rect><path d="M237,337.8H43.92a5.71,5.71,0,0,1-5.71-5.71V60.66A5.71,5.71,0,0,1,43.92,55H237a5.71,5.71,0,0,1,5.71,5.71V332.09A5.71,5.71,0,0,1,237,337.8ZM43.92,55.2a5.47,5.47,0,0,0-5.46,5.46V332.09a5.47,5.47,0,0,0,5.46,5.46H237a5.47,5.47,0,0,0,5.46-5.46V60.66A5.47,5.47,0,0,0,237,55.2Z" style="fill:#ebebeb"></path><path d="M453.31,337.8H260.21a5.72,5.72,0,0,1-5.71-5.71V60.66A5.72,5.72,0,0,1,260.21,55h193.1A5.71,5.71,0,0,1,459,60.66V332.09A5.71,5.71,0,0,1,453.31,337.8ZM260.21,55.2a5.47,5.47,0,0,0-5.46,5.46V332.09a5.47,5.47,0,0,0,5.46,5.46h193.1a5.47,5.47,0,0,0,5.46-5.46V60.66a5.47,5.47,0,0,0-5.46-5.46Z" style="fill:#ebebeb"></path><rect y="382.4" width="500" height="0.25" style="fill:#ebebeb"></rect><rect x="99.84" y="100.61" width="78.51" height="219.93" transform="translate(278.19 421.14) rotate(180)" style="fill:#fafafa"></rect><polygon points="107.54 100.61 133.71 100.61 162.35 320.22 136.18 320.22 107.54 100.61" style="fill:#f5f5f5"></polygon><path d="M95.93,96.47h86.53V324H95.93Zm79.94,6.6H102.52V317.43h73.35Z" style="fill:#f0f0f0"></path><rect x="210.65" y="100.61" width="78.51" height="219.93" transform="translate(499.8 421.14) rotate(180)" style="fill:#fafafa"></rect><polygon points="218.34 100.61 244.52 100.61 273.16 320.22 246.98 320.22 218.34 100.61" style="fill:#f5f5f5"></polygon><path d="M206.73,96.47h86.54V324H206.73Zm79.94,6.6H213.33V317.43h73.34Z" style="fill:#f0f0f0"></path><rect x="321.45" y="100.61" width="78.51" height="219.93" transform="translate(721.41 421.14) rotate(180)" style="fill:#fafafa"></rect><polygon points="329.14 100.61 355.32 100.61 383.96 320.22 357.78 320.22 329.14 100.61" style="fill:#f5f5f5"></polygon><path d="M317.54,96.47h86.53V324H317.54Zm79.94,6.6H324.13V317.43h73.35Z" style="fill:#f0f0f0"></path><path d="M440.55,303.94c-8.33-4.62-13.39,2.28-13.54,2.49a53.43,53.43,0,0,1,7.38-10.18c.48,6.15,12.37-2.91,12.37-2.91-6.13-2.11-12.19,2.76-12.35,2.89a39.32,39.32,0,0,1,10.52-8.36c-15.89,6.7-23,21.4-26.15,33.76,0,0-1.19-12-13.27-10.46,0,0,8.49,15.58,13.27,10.46a79.78,79.78,0,0,0-2.51,20.13h2.38a80.62,80.62,0,0,1,2.8-21.71c5,2.23,16.25-5.93,16.25-5.93-10.52-6.36-15.69,4.63-16.21,5.81A61.49,61.49,0,0,1,427,306.44C431.45,311.61,440.55,303.94,440.55,303.94Z" style="fill:#f5f5f5"></path><path d="M423.2,309.37s-.11-8.9-7.78-10.32C415.42,299.05,416.64,311.54,423.2,309.37Z" style="fill:#f5f5f5"></path><path d="M430.38,298.39s5.19-9.63,4-12.79C434.39,285.6,421.22,296.51,430.38,298.39Z" style="fill:#f5f5f5"></path><path d="M433,289.53c-10.95-3.72-15.51,5.62-15.64,5.9A64.48,64.48,0,0,1,424,281.67c1.9,7.25,14.15-6.14,14.15-6.14-7.78-1.2-14,5.93-14.13,6.12,5.38-8.4,10.76-12.27,10.76-12.27-17.53,11.44-22.84,30.54-23.95,46,0,0-4-14.05-18.12-9.63,0,0,13.51,16.78,18.12,9.63a97.09,97.09,0,0,0,1.35,24.6l2.84-.52a97.71,97.71,0,0,1-1.34-26.55c6.5,1.58,18.13-10.59,18.13-10.59-13.94-5.33-17.75,8.92-18.11,10.45a74.58,74.58,0,0,1,3.67-17.32C423.8,300.66,433,289.53,433,289.53Z" style="fill:#ebebeb"></path><path d="M413.45,299.76s-2.05-10.6-11.52-10.65C401.93,289.11,406.08,303.77,413.45,299.76Z" style="fill:#ebebeb"></path><path d="M419.65,285.09s4.14-12.63,2-16.14C421.69,269,408.31,284.83,419.65,285.09Z" style="fill:#ebebeb"></path><path d="M376.48,290.54c11.9-6.6,19.13,3.26,19.34,3.56a75.66,75.66,0,0,0-10.55-14.55c-.67,8.79-17.66-4.15-17.66-4.15,8.76-3,17.42,4,17.64,4.13-8-8.59-15-11.94-15-11.94,22.69,9.57,32.83,30.57,37.34,48.22,0,0,1.71-17.1,19-14.94,0,0-12.13,22.26-19,14.94a113.84,113.84,0,0,1,3.59,28.76h-3.39a114.82,114.82,0,0,0-4-31c-7.2,3.19-23.2-8.46-23.2-8.46,15-9.1,22.41,6.6,23.15,8.3a87.7,87.7,0,0,0-7.88-19.28C389.48,301.5,376.48,290.54,376.48,290.54Z" style="fill:#e0e0e0"></path><path d="M401.27,298.29s.14-12.7,11.11-14.74C412.38,283.55,410.63,301.39,401.27,298.29Z" style="fill:#e0e0e0"></path><path d="M391,282.61s-7.42-13.75-5.74-18.27C385.27,264.34,404.09,279.93,391,282.61Z" style="fill:#e0e0e0"></path><polygon points="424.68 382.65 400.5 382.65 395.89 335.24 429.29 335.24 424.68 382.65" style="fill:#ebebeb"></polygon></g><g id="freepik--Shadow--inject-17"><ellipse id="freepik--path--inject-17" cx="245.18" cy="412.39" rx="193.89" ry="11.32" style="fill:#f5f5f5"></ellipse></g><g id="freepik--Device--inject-17"><path d="M126.83,409.65h96.29A17.69,17.69,0,0,0,241,390L220.88,159.89a21.83,21.83,0,0,0-21.33-19.62H103.26a17.69,17.69,0,0,0-17.9,19.62L105.5,390A21.84,21.84,0,0,0,126.83,409.65Z" style="fill:#FF725E"></path><path d="M131.83,409.65h96.29A17.69,17.69,0,0,0,246,390L225.88,159.89a21.83,21.83,0,0,0-21.33-19.62H108.26a17.69,17.69,0,0,0-17.9,19.62L110.5,390A21.84,21.84,0,0,0,131.83,409.65Z" style="fill:#263238"></path><path d="M108.65,144.77h25a3.63,3.63,0,0,1,3.48,2.85l.17.78a8.89,8.89,0,0,0,8.5,6.95h23.79a7.14,7.14,0,0,0,7.28-6.95l0-.78a2.92,2.92,0,0,1,3-2.85h25a16.83,16.83,0,0,1,16.43,15.12L241.52,390a13.63,13.63,0,0,1-13.79,15.11h-96.3A16.82,16.82,0,0,1,115,390L94.86,159.89A13.63,13.63,0,0,1,108.65,144.77Z" style="fill:#FF725E"></path><path d="M108.65,144.77h25a3.63,3.63,0,0,1,3.48,2.85l.17.78a8.89,8.89,0,0,0,8.5,6.95h23.79a7.14,7.14,0,0,0,7.28-6.95l0-.78a2.92,2.92,0,0,1,3-2.85h25a16.83,16.83,0,0,1,16.43,15.12L241.52,390a13.63,13.63,0,0,1-13.79,15.11h-96.3A16.82,16.82,0,0,1,115,390L94.86,159.89A13.63,13.63,0,0,1,108.65,144.77Z" style="fill:#fff;opacity:0.8"></path><g style="opacity:0.9"><path d="M162.85,147.32a2.13,2.13,0,0,0,2.08,1.92,1.73,1.73,0,0,0,1.74-1.92,2.13,2.13,0,0,0-2.08-1.91A1.72,1.72,0,0,0,162.85,147.32Z"></path><path d="M149.12,145.41h6.56a2.14,2.14,0,0,1,2.08,1.91,1.73,1.73,0,0,1-1.75,1.92h-6.56a2.14,2.14,0,0,1-2.08-1.92A1.73,1.73,0,0,1,149.12,145.41Z"></path></g><polygon points="106.41 155.31 108.44 155.31 108.26 153.29 106.23 153.29 106.41 155.31" style="fill:#FF725E"></polygon><polygon points="110.28 153.29 110.46 155.31 112.48 155.31 112.31 153.29 112.13 151.26 110.11 151.26 110.28 153.29" style="fill:#FF725E"></polygon><polygon points="113.98 149.24 114.16 151.26 114.33 153.29 114.51 155.31 116.53 155.31 116.36 153.29 116.18 151.26 116 149.24 113.98 149.24" style="fill:#FF725E"></polygon><path d="M201.07,149.37l.13,1.49h-1l.26,3h1l.13,1.48h8.91l-.52-5.94Zm4.35,4.46h-3l-.26-3h3Z" style="fill:#FF725E"></path><path d="M126.64,286.51H112.92a1.23,1.23,0,0,1-1.21-1.11l0-.22a1,1,0,0,1,1-1.11h13.73a1.23,1.23,0,0,1,1.2,1.11l0,.22A1,1,0,0,1,126.64,286.51Z" style="fill:#263238"></path><path d="M152.29,286.51H131a1.23,1.23,0,0,1-1.2-1.11l0-.22a1,1,0,0,1,1-1.11h21.3a1.23,1.23,0,0,1,1.21,1.11l0,.22A1,1,0,0,1,152.29,286.51Z" style="fill:#263238"></path><path d="M167.72,286.51H156.28a1.23,1.23,0,0,1-1.2-1.11l0-.22a1,1,0,0,1,1-1.11h11.44a1.25,1.25,0,0,1,1.21,1.11l0,.22A1,1,0,0,1,167.72,286.51Z" style="fill:#263238"></path><path d="M136.07,294.9H113.65a1.24,1.24,0,0,1-1.21-1.11l0-.22a1,1,0,0,1,1-1.11h22.41a1.23,1.23,0,0,1,1.21,1.11l0,.22A1,1,0,0,1,136.07,294.9Z" style="fill:#263238"></path><path d="M152.13,294.9H140.41a1.24,1.24,0,0,1-1.21-1.11l0-.22a1,1,0,0,1,1-1.11h11.72a1.25,1.25,0,0,1,1.21,1.11l0,.22A1,1,0,0,1,152.13,294.9Z" style="fill:#263238"></path><path d="M168.46,294.9H156.13a1.24,1.24,0,0,1-1.21-1.11l0-.22a1,1,0,0,1,1-1.11h12.32a1.23,1.23,0,0,1,1.21,1.11l0,.22A1,1,0,0,1,168.46,294.9Z" style="fill:#263238"></path><path d="M131.34,303.29h-17a1.23,1.23,0,0,1-1.21-1.11l0-.22a1,1,0,0,1,1-1.11h17a1.25,1.25,0,0,1,1.21,1.11l0,.22A1,1,0,0,1,131.34,303.29Z" style="fill:#263238"></path><path d="M150.87,303.29H135.69a1.23,1.23,0,0,1-1.21-1.11l0-.22a1,1,0,0,1,1-1.11h15.19a1.23,1.23,0,0,1,1.2,1.11l0,.22A1,1,0,0,1,150.87,303.29Z" style="fill:#263238"></path><path d="M169.19,303.29H154.87a1.23,1.23,0,0,1-1.21-1.11l0-.22a1,1,0,0,1,1-1.11H169a1.25,1.25,0,0,1,1.21,1.11l0,.22A1,1,0,0,1,169.19,303.29Z" style="fill:#263238"></path><path d="M129.9,311.69H115.12a1.25,1.25,0,0,1-1.21-1.11l0-.23a1,1,0,0,1,1-1.11h14.78a1.25,1.25,0,0,1,1.21,1.11l0,.23A1,1,0,0,1,129.9,311.69Z" style="fill:#263238"></path><path d="M148.72,311.69H134.25a1.25,1.25,0,0,1-1.21-1.11l0-.23a1,1,0,0,1,1-1.11h14.47a1.23,1.23,0,0,1,1.2,1.11l0,.23A1,1,0,0,1,148.72,311.69Z" style="fill:#263238"></path><path d="M169.93,311.69H152.72a1.23,1.23,0,0,1-1.21-1.11l0-.23a1,1,0,0,1,1-1.11h17.21a1.23,1.23,0,0,1,1.21,1.11l0,.23A1,1,0,0,1,169.93,311.69Z" style="fill:#263238"></path><path d="M137.16,320.08H115.85a1.23,1.23,0,0,1-1.2-1.11l0-.23a1,1,0,0,1,1-1.11H137a1.23,1.23,0,0,1,1.2,1.11l0,.23A1,1,0,0,1,137.16,320.08Z" style="fill:#263238"></path><path d="M152.34,320.08H141.5a1.23,1.23,0,0,1-1.2-1.11l0-.23a1,1,0,0,1,1-1.11h10.84a1.23,1.23,0,0,1,1.2,1.11l0,.23A1,1,0,0,1,152.34,320.08Z" style="fill:#263238"></path><path d="M170.66,320.08H156.33a1.23,1.23,0,0,1-1.2-1.11l0-.23a1,1,0,0,1,1-1.11h14.33a1.23,1.23,0,0,1,1.2,1.11l0,.23A1,1,0,0,1,170.66,320.08Z" style="fill:#263238"></path><path d="M134.61,328.47h-18a1.24,1.24,0,0,1-1.21-1.11l0-.22a1,1,0,0,1,1-1.11h18a1.23,1.23,0,0,1,1.21,1.11l0,.22A1,1,0,0,1,134.61,328.47Z" style="fill:#263238"></path><path d="M149.3,328.47H139a1.25,1.25,0,0,1-1.21-1.11l0-.22a1,1,0,0,1,1-1.11h10.35a1.22,1.22,0,0,1,1.2,1.11l0,.22A1,1,0,0,1,149.3,328.47Z" style="fill:#263238"></path><path d="M171.39,328.47H153.3a1.23,1.23,0,0,1-1.21-1.11l0-.22a1,1,0,0,1,1-1.11h18.1a1.24,1.24,0,0,1,1.21,1.11l0,.22A1,1,0,0,1,171.39,328.47Z" style="fill:#263238"></path><path d="M135.34,336.86h-18a1.23,1.23,0,0,1-1.2-1.11l0-.22a1,1,0,0,1,1-1.11h18a1.22,1.22,0,0,1,1.2,1.11l0,.22A1,1,0,0,1,135.34,336.86Z" style="fill:#263238"></path><path d="M155.81,336.86H139.69a1.23,1.23,0,0,1-1.21-1.11l0-.22a1,1,0,0,1,1-1.11h16.12a1.23,1.23,0,0,1,1.21,1.11l0,.22A1,1,0,0,1,155.81,336.86Z" style="fill:#263238"></path><path d="M172.13,336.86H159.8a1.25,1.25,0,0,1-1.21-1.11l0-.22a1,1,0,0,1,1-1.11h12.32a1.23,1.23,0,0,1,1.21,1.11l0,.22A1,1,0,0,1,172.13,336.86Z" style="fill:#263238"></path><g style="opacity:0.4"><path d="M126.64,286.51H112.92a1.23,1.23,0,0,1-1.21-1.11l0-.22a1,1,0,0,1,1-1.11h13.73a1.23,1.23,0,0,1,1.2,1.11l0,.22A1,1,0,0,1,126.64,286.51Z" style="fill:#fff"></path><path d="M152.29,286.51H131a1.23,1.23,0,0,1-1.2-1.11l0-.22a1,1,0,0,1,1-1.11h21.3a1.23,1.23,0,0,1,1.21,1.11l0,.22A1,1,0,0,1,152.29,286.51Z" style="fill:#fff"></path><path d="M167.72,286.51H156.28a1.23,1.23,0,0,1-1.2-1.11l0-.22a1,1,0,0,1,1-1.11h11.44a1.25,1.25,0,0,1,1.21,1.11l0,.22A1,1,0,0,1,167.72,286.51Z" style="fill:#fff"></path><path d="M136.07,294.9H113.65a1.24,1.24,0,0,1-1.21-1.11l0-.22a1,1,0,0,1,1-1.11h22.41a1.23,1.23,0,0,1,1.21,1.11l0,.22A1,1,0,0,1,136.07,294.9Z" style="fill:#fff"></path><path d="M152.13,294.9H140.41a1.24,1.24,0,0,1-1.21-1.11l0-.22a1,1,0,0,1,1-1.11h11.72a1.25,1.25,0,0,1,1.21,1.11l0,.22A1,1,0,0,1,152.13,294.9Z" style="fill:#fff"></path><path d="M168.46,294.9H156.13a1.24,1.24,0,0,1-1.21-1.11l0-.22a1,1,0,0,1,1-1.11h12.32a1.23,1.23,0,0,1,1.21,1.11l0,.22A1,1,0,0,1,168.46,294.9Z" style="fill:#fff"></path><path d="M131.34,303.29h-17a1.23,1.23,0,0,1-1.21-1.11l0-.22a1,1,0,0,1,1-1.11h17a1.25,1.25,0,0,1,1.21,1.11l0,.22A1,1,0,0,1,131.34,303.29Z" style="fill:#fff"></path><path d="M150.87,303.29H135.69a1.23,1.23,0,0,1-1.21-1.11l0-.22a1,1,0,0,1,1-1.11h15.19a1.23,1.23,0,0,1,1.2,1.11l0,.22A1,1,0,0,1,150.87,303.29Z" style="fill:#fff"></path><path d="M169.19,303.29H154.87a1.23,1.23,0,0,1-1.21-1.11l0-.22a1,1,0,0,1,1-1.11H169a1.25,1.25,0,0,1,1.21,1.11l0,.22A1,1,0,0,1,169.19,303.29Z" style="fill:#fff"></path><path d="M129.9,311.69H115.12a1.25,1.25,0,0,1-1.21-1.11l0-.23a1,1,0,0,1,1-1.11h14.78a1.25,1.25,0,0,1,1.21,1.11l0,.23A1,1,0,0,1,129.9,311.69Z" style="fill:#fff"></path><path d="M148.72,311.69H134.25a1.25,1.25,0,0,1-1.21-1.11l0-.23a1,1,0,0,1,1-1.11h14.47a1.23,1.23,0,0,1,1.2,1.11l0,.23A1,1,0,0,1,148.72,311.69Z" style="fill:#fff"></path><path d="M169.93,311.69H152.72a1.23,1.23,0,0,1-1.21-1.11l0-.23a1,1,0,0,1,1-1.11h17.21a1.23,1.23,0,0,1,1.21,1.11l0,.23A1,1,0,0,1,169.93,311.69Z" style="fill:#fff"></path><path d="M137.16,320.08H115.85a1.23,1.23,0,0,1-1.2-1.11l0-.23a1,1,0,0,1,1-1.11H137a1.23,1.23,0,0,1,1.2,1.11l0,.23A1,1,0,0,1,137.16,320.08Z" style="fill:#fff"></path><path d="M152.34,320.08H141.5a1.23,1.23,0,0,1-1.2-1.11l0-.23a1,1,0,0,1,1-1.11h10.84a1.23,1.23,0,0,1,1.2,1.11l0,.23A1,1,0,0,1,152.34,320.08Z" style="fill:#fff"></path><path d="M170.66,320.08H156.33a1.23,1.23,0,0,1-1.2-1.11l0-.23a1,1,0,0,1,1-1.11h14.33a1.23,1.23,0,0,1,1.2,1.11l0,.23A1,1,0,0,1,170.66,320.08Z" style="fill:#fff"></path><path d="M134.61,328.47h-18a1.24,1.24,0,0,1-1.21-1.11l0-.22a1,1,0,0,1,1-1.11h18a1.23,1.23,0,0,1,1.21,1.11l0,.22A1,1,0,0,1,134.61,328.47Z" style="fill:#fff"></path><path d="M149.3,328.47H139a1.25,1.25,0,0,1-1.21-1.11l0-.22a1,1,0,0,1,1-1.11h10.35a1.22,1.22,0,0,1,1.2,1.11l0,.22A1,1,0,0,1,149.3,328.47Z" style="fill:#fff"></path><path d="M171.39,328.47H153.3a1.23,1.23,0,0,1-1.21-1.11l0-.22a1,1,0,0,1,1-1.11h18.1a1.24,1.24,0,0,1,1.21,1.11l0,.22A1,1,0,0,1,171.39,328.47Z" style="fill:#fff"></path><path d="M135.34,336.86h-18a1.23,1.23,0,0,1-1.2-1.11l0-.22a1,1,0,0,1,1-1.11h18a1.22,1.22,0,0,1,1.2,1.11l0,.22A1,1,0,0,1,135.34,336.86Z" style="fill:#fff"></path><path d="M155.81,336.86H139.69a1.23,1.23,0,0,1-1.21-1.11l0-.22a1,1,0,0,1,1-1.11h16.12a1.23,1.23,0,0,1,1.21,1.11l0,.22A1,1,0,0,1,155.81,336.86Z" style="fill:#fff"></path><path d="M172.13,336.86H159.8a1.25,1.25,0,0,1-1.21-1.11l0-.22a1,1,0,0,1,1-1.11h12.32a1.23,1.23,0,0,1,1.21,1.11l0,.22A1,1,0,0,1,172.13,336.86Z" style="fill:#fff"></path></g><path d="M232.1,349.61H118.44a1.23,1.23,0,0,1-1.21-1.11l0-.23a1,1,0,0,1,1-1.11H231.88a1.23,1.23,0,0,1,1.21,1.11l0,.23A1,1,0,0,1,232.1,349.61Z" style="fill:#263238"></path><path d="M147.58,363.13h-28a1.24,1.24,0,0,1-1.21-1.11l0-.22a1,1,0,0,1,1-1.11h28a1.23,1.23,0,0,1,1.21,1.11l0,.22A1,1,0,0,1,147.58,363.13Z" style="fill:#263238"></path><path d="M146.14,371.52H120.36a1.23,1.23,0,0,1-1.21-1.11l0-.22a1,1,0,0,1,1-1.11h25.79a1.23,1.23,0,0,1,1.2,1.11l0,.22A1,1,0,0,1,146.14,371.52Z" style="fill:#263238"></path><path d="M143.39,379.92h-22.3a1.25,1.25,0,0,1-1.21-1.12l0-.22a1,1,0,0,1,1-1.11h22.3a1.25,1.25,0,0,1,1.21,1.11l0,.22A1,1,0,0,1,143.39,379.92Z" style="fill:#263238"></path><path d="M140.84,388.31h-19a1.23,1.23,0,0,1-1.2-1.11l0-.23a1,1,0,0,1,1-1.11h19a1.25,1.25,0,0,1,1.21,1.11l0,.23A1,1,0,0,1,140.84,388.31Z" style="fill:#263238"></path><path d="M228.93,363.13H201a1.23,1.23,0,0,1-1.21-1.11l0-.22a1,1,0,0,1,1-1.11h28a1.25,1.25,0,0,1,1.21,1.11l0,.22A1,1,0,0,1,228.93,363.13Z" style="fill:#263238"></path><path d="M224.5,371.52H201.71a1.24,1.24,0,0,1-1.21-1.11l0-.22a1,1,0,0,1,1-1.11h22.78a1.23,1.23,0,0,1,1.21,1.11l0,.22A1,1,0,0,1,224.5,371.52Z" style="fill:#263238"></path><path d="M224.75,379.92h-22.3a1.23,1.23,0,0,1-1.21-1.12l0-.22a1,1,0,0,1,1-1.11h22.31a1.23,1.23,0,0,1,1.2,1.11l0,.22A1,1,0,0,1,224.75,379.92Z" style="fill:#263238"></path><path d="M227.2,388.31h-24A1.25,1.25,0,0,1,202,387.2l0-.23a1,1,0,0,1,1-1.11h24a1.23,1.23,0,0,1,1.21,1.11l0,.23A1,1,0,0,1,227.2,388.31Z" style="fill:#263238"></path><path d="M187.71,363.13h-28a1.24,1.24,0,0,1-1.21-1.11v-.22a1,1,0,0,1,1-1.11h28a1.23,1.23,0,0,1,1.21,1.11l0,.22A1,1,0,0,1,187.71,363.13Z" style="fill:#263238"></path><path d="M190.27,371.52H160.49a1.23,1.23,0,0,1-1.21-1.11l0-.22a1,1,0,0,1,1-1.11h29.79a1.23,1.23,0,0,1,1.2,1.11l0,.22A1,1,0,0,1,190.27,371.52Z" style="fill:#263238"></path><path d="M187.53,379.92H161.22A1.25,1.25,0,0,1,160,378.8l0-.22a1,1,0,0,1,1-1.11h26.3a1.24,1.24,0,0,1,1.21,1.11l0,.22A1,1,0,0,1,187.53,379.92Z" style="fill:#263238"></path><path d="M185,388.31H162a1.23,1.23,0,0,1-1.2-1.11l0-.23a1,1,0,0,1,1-1.11h23A1.25,1.25,0,0,1,186,387l0,.23A1,1,0,0,1,185,388.31Z" style="fill:#263238"></path><g style="opacity:0.4"><path d="M147.58,363.13h-28a1.24,1.24,0,0,1-1.21-1.11l0-.22a1,1,0,0,1,1-1.11h28a1.23,1.23,0,0,1,1.21,1.11l0,.22A1,1,0,0,1,147.58,363.13Z" style="fill:#fff"></path><path d="M146.14,371.52H120.36a1.23,1.23,0,0,1-1.21-1.11l0-.22a1,1,0,0,1,1-1.11h25.79a1.23,1.23,0,0,1,1.2,1.11l0,.22A1,1,0,0,1,146.14,371.52Z" style="fill:#fff"></path><path d="M143.39,379.92h-22.3a1.25,1.25,0,0,1-1.21-1.12l0-.22a1,1,0,0,1,1-1.11h22.3a1.25,1.25,0,0,1,1.21,1.11l0,.22A1,1,0,0,1,143.39,379.92Z" style="fill:#fff"></path><path d="M140.84,388.31h-19a1.23,1.23,0,0,1-1.2-1.11l0-.23a1,1,0,0,1,1-1.11h19a1.25,1.25,0,0,1,1.21,1.11l0,.23A1,1,0,0,1,140.84,388.31Z" style="fill:#fff"></path><path d="M228.93,363.13H201a1.23,1.23,0,0,1-1.21-1.11l0-.22a1,1,0,0,1,1-1.11h28a1.25,1.25,0,0,1,1.21,1.11l0,.22A1,1,0,0,1,228.93,363.13Z" style="fill:#fff"></path><path d="M224.5,371.52H201.71a1.24,1.24,0,0,1-1.21-1.11l0-.22a1,1,0,0,1,1-1.11h22.78a1.23,1.23,0,0,1,1.21,1.11l0,.22A1,1,0,0,1,224.5,371.52Z" style="fill:#fff"></path><path d="M224.75,379.92h-22.3a1.23,1.23,0,0,1-1.21-1.12l0-.22a1,1,0,0,1,1-1.11h22.31a1.23,1.23,0,0,1,1.2,1.11l0,.22A1,1,0,0,1,224.75,379.92Z" style="fill:#fff"></path><path d="M227.2,388.31h-24A1.25,1.25,0,0,1,202,387.2l0-.23a1,1,0,0,1,1-1.11h24a1.23,1.23,0,0,1,1.21,1.11l0,.23A1,1,0,0,1,227.2,388.31Z" style="fill:#fff"></path><path d="M187.71,363.13h-28a1.24,1.24,0,0,1-1.21-1.11v-.22a1,1,0,0,1,1-1.11h28a1.23,1.23,0,0,1,1.21,1.11l0,.22A1,1,0,0,1,187.71,363.13Z" style="fill:#fff"></path><path d="M190.27,371.52H160.49a1.23,1.23,0,0,1-1.21-1.11l0-.22a1,1,0,0,1,1-1.11h29.79a1.23,1.23,0,0,1,1.2,1.11l0,.22A1,1,0,0,1,190.27,371.52Z" style="fill:#fff"></path><path d="M187.53,379.92H161.22A1.25,1.25,0,0,1,160,378.8l0-.22a1,1,0,0,1,1-1.11h26.3a1.24,1.24,0,0,1,1.21,1.11l0,.22A1,1,0,0,1,187.53,379.92Z" style="fill:#fff"></path><path d="M185,388.31H162a1.23,1.23,0,0,1-1.2-1.11l0-.23a1,1,0,0,1,1-1.11h23A1.25,1.25,0,0,1,186,387l0,.23A1,1,0,0,1,185,388.31Z" style="fill:#fff"></path></g><polygon points="189.54 336.86 182.54 336.86 178.65 292.46 185.65 292.46 189.54 336.86" style="fill:#FF725E"></polygon><polygon points="203.54 336.86 196.54 336.86 191.94 284.3 198.94 284.3 203.54 336.86" style="fill:#263238"></polygon><polygon points="217.54 336.86 210.54 336.86 207.95 307.27 214.95 307.27 217.54 336.86" style="fill:#FF725E"></polygon><polygon points="231.54 336.86 224.54 336.86 222.96 318.86 229.96 318.86 231.54 336.86" style="fill:#263238"></polygon><polygon points="104.13 265.84 230.65 265.84 224.28 193 97.76 193 104.13 265.84" style="fill:#fff;opacity:0.6000000000000001"></polygon><polygon points="138.37 225.15 103.88 262.94 104.13 265.84 182.62 265.84 138.37 225.15" style="fill:#FF725E"></polygon><polygon points="138.37 225.15 103.88 262.94 104.13 265.84 182.62 265.84 138.37 225.15" style="fill:#fff;opacity:0.30000000000000004"></polygon><polygon points="157.97 265.84 230.65 265.84 226.99 224.01 210.21 208.59 157.97 265.84" style="fill:#FF725E"></polygon><polygon points="157.97 265.84 230.65 265.84 226.99 224.01 210.21 208.59 157.97 265.84" style="fill:#fff;opacity:0.5"></polygon><ellipse cx="159.41" cy="208.94" rx="8.61" ry="9.4" transform="translate(-101.75 179.62) rotate(-46.25)" style="fill:#fff;opacity:0.9"></ellipse><path d="M209.91,243c.49,5.58-1.95,10.11-5.45,10.11s-6.73-4.53-7.22-10.11,1.29-17.69,4.79-17.69S209.42,237.42,209.91,243Z" style="fill:#FF725E"></path><path d="M207.38,239.56l-.77-.7-2.41,2.64-.45-5.14a.85.85,0,0,0-.82-.75h0a.68.68,0,0,0-.68.75l1,11.64-3.55-2.93-.59.75,4.26,3.51,1.43,16.35h1.5l-2-22.76Z" style="fill:#263238"></path><path d="M192.89,249.6c.34,4-1.39,7.16-3.87,7.16s-4.77-3.21-5.12-7.16.92-12.55,3.4-12.55S192.54,245.64,192.89,249.6Z" style="fill:#FF725E"></path><path d="M191.09,247.16l-.54-.5-1.72,1.87-.31-3.65a.6.6,0,0,0-.58-.53h0a.48.48,0,0,0-.49.53l.72,8.26-2.51-2.08-.43.53,3,2.5,1,11.59h1.06l-1.41-16.14Z" style="fill:#263238"></path><path d="M130.18,217.55a6.29,6.29,0,0,0-5.85-4.3,5.16,5.16,0,0,0-.89.09,7.2,7.2,0,0,0-4.94-2,6,6,0,0,0-6,5.4,4.34,4.34,0,0,0-1.82-.42,3.73,3.73,0,0,0-3.77,4.14,4.6,4.6,0,0,0,4.5,4.14h19A3.18,3.18,0,0,0,133.6,221,3.93,3.93,0,0,0,130.18,217.55Z" style="fill:#fff;opacity:0.9"></path><path d="M186,224.3a4.35,4.35,0,0,0-4-3,4.07,4.07,0,0,0-.61.06A5,5,0,0,0,178,220a4.11,4.11,0,0,0-4.16,3.73,3,3,0,0,0-1.25-.29,2.57,2.57,0,0,0-2.6,2.85,3.17,3.17,0,0,0,3.1,2.86h13.1a2.2,2.2,0,0,0,2.22-2.44A2.72,2.72,0,0,0,186,224.3Z" style="fill:#fff;opacity:0.9"></path><path d="M184.5,201.5a6.91,6.91,0,0,1,6,3.72,4.48,4.48,0,0,1,2.93-1.07,5.46,5.46,0,0,1,5.13,3.89,2.92,2.92,0,0,1,1.51-.42,3.52,3.52,0,0,1,3.43,3.15,2.85,2.85,0,0,1-2.88,3.15h-15a6.91,6.91,0,0,1-6.76-6.21A5.6,5.6,0,0,1,184.5,201.5Z" style="fill:#fff;opacity:0.9"></path><path d="M201.85,176.39l.43,4.93a5.35,5.35,0,0,0,5.21,4.79h6.07a4.32,4.32,0,0,0,4.37-4.79l-.43-4.93a5.32,5.32,0,0,0-5.21-4.78h-6.07A4.32,4.32,0,0,0,201.85,176.39Z" style="fill:#fff;opacity:0.9"></path><path d="M204.67,175.61h0a.84.84,0,0,0,.82.75h8.37a.68.68,0,0,0,.68-.75h0a.82.82,0,0,0-.81-.75h-8.38A.67.67,0,0,0,204.67,175.61Z" style="fill:#FF725E"></path><path d="M205.77,179.61h8.37a.68.68,0,0,0,.69-.75h0a.83.83,0,0,0-.82-.75h-8.37a.68.68,0,0,0-.69.75h0A.85.85,0,0,0,205.77,179.61Z" style="fill:#FF725E"></path><path d="M206.05,182.86h8.38a.68.68,0,0,0,.68-.75h0a.82.82,0,0,0-.81-.75h-8.38a.67.67,0,0,0-.68.75h0A.83.83,0,0,0,206.05,182.86Z" style="fill:#FF725E"></path><path d="M188.83,171.61H109a6.53,6.53,0,0,0-6.61,7.25h0a8.07,8.07,0,0,0,7.88,7.25H190.1a6.53,6.53,0,0,0,6.61-7.25h0A8.07,8.07,0,0,0,188.83,171.61Z" style="fill:#fff;opacity:0.9"></path><path d="M155.5,183l-3-2.76a1.13,1.13,0,0,0-.68-.28,4.56,4.56,0,0,0-1-5.71,4.27,4.27,0,1,0-5.74,6.29,4.54,4.54,0,0,0,5.76.47,1.06,1.06,0,0,0,.34.65l3,2.75A1,1,0,1,0,155.5,183Zm-5.62-3.88a2.45,2.45,0,0,1-3.47,0,2.35,2.35,0,1,1,3.47,0Z" style="fill:#FF725E"></path></g><g id="freepik--icon-3--inject-17"><circle cx="271.95" cy="322.03" r="27.42" style="fill:#FF725E"></circle><circle cx="271.95" cy="322.03" r="27.42" style="fill:#fff;opacity:0.9"></circle><circle cx="271.95" cy="322.03" r="20.87" style="fill:#FF725E"></circle><circle cx="271.95" cy="322.03" r="20.87" style="fill:#fff;opacity:0.5"></circle><path d="M272,351.44A29.42,29.42,0,1,1,301.37,322,29.45,29.45,0,0,1,272,351.44ZM297.37,322A25.42,25.42,0,1,0,272,347.44,25.45,25.45,0,0,0,297.37,322" style="fill:#FF725E"></path><rect x="270.45" y="337.42" width="3" height="3.85" rx="1.5" style="fill:#FF725E"></rect><rect x="270.45" y="302.78" width="3" height="3.79" rx="1.5" style="fill:#FF725E"></rect><rect x="252.7" y="320.53" width="3.85" height="3" rx="1.5" style="fill:#FF725E"></rect><rect x="287.34" y="320.53" width="3.85" height="3" rx="1.5" style="fill:#FF725E"></rect><path d="M258.34,335.64h0a1.49,1.49,0,0,1,0-2.12l.6-.61a1.51,1.51,0,0,1,2.12,0h0a1.49,1.49,0,0,1,0,2.12l-.6.61A1.51,1.51,0,0,1,258.34,335.64Z" style="fill:#FF725E"></path><path d="M282.83,311.14h0a1.51,1.51,0,0,1,0-2.12l.61-.61a1.51,1.51,0,0,1,2.12,0h0a1.5,1.5,0,0,1,0,2.13l-.6.6A1.5,1.5,0,0,1,282.83,311.14Z" style="fill:#FF725E"></path><path d="M258.94,311.14l-.6-.6a1.5,1.5,0,0,1,0-2.13h0a1.51,1.51,0,0,1,2.12,0l.6.61a1.49,1.49,0,0,1,0,2.12h0A1.49,1.49,0,0,1,258.94,311.14Z" style="fill:#FF725E"></path><path d="M283.44,335.64l-.6-.6a1.49,1.49,0,0,1,0-2.12h0a1.49,1.49,0,0,1,2.12,0l.6.6a1.49,1.49,0,0,1,0,2.12h0A1.51,1.51,0,0,1,283.44,335.64Z" style="fill:#FF725E"></path><path d="M281.31,321.58a.55.55,0,0,0-.12-1.05c-2.85-.52-8.21-1.45-9.37-1.32a2.89,2.89,0,1,0,.65,5.74C273.62,324.82,278.65,322.72,281.31,321.58Zm-10.28.63a1,1,0,0,1,2.07-.24,1,1,0,1,1-2.07.24Z" style="fill:#263238"></path><g style="opacity:0.4"><path d="M297.35,322a25.44,25.44,0,0,1-25.41,25.41v4A29.44,29.44,0,0,0,301.35,322Z"></path></g></g><g id="freepik--icon-2--inject-17"><circle cx="249.74" cy="265.68" r="46.08" style="fill:#FF725E"></circle><circle cx="249.74" cy="265.68" r="46.08" style="fill:#fff;opacity:0.9"></circle><path d="M249.74,313.76a48.08,48.08,0,1,1,48.08-48.08A48.13,48.13,0,0,1,249.74,313.76Zm0-92.16a44.08,44.08,0,1,0,44.08,44.08A44.12,44.12,0,0,0,249.74,221.6Z" style="fill:#FF725E"></path><g style="opacity:0.30000000000000004"><path d="M249.74,313.76a48.08,48.08,0,1,1,48.08-48.08A48.13,48.13,0,0,1,249.74,313.76Zm0-92.16a44.08,44.08,0,1,0,44.08,44.08A44.12,44.12,0,0,0,249.74,221.6Z"></path></g><path d="M264.91,284.35H209.66a1.68,1.68,0,0,1-1.54-1l-1.07-2.4a1.69,1.69,0,0,1,1.54-2.37H266a1.69,1.69,0,0,1,1.54,2.37l-1.07,2.4A1.68,1.68,0,0,1,264.91,284.35Z" style="fill:#263238"></path><path d="M213.94,247.17h46.7a2,2,0,0,1,2,2v32.32a0,0,0,0,1,0,0H212a0,0,0,0,1,0,0V249.14A2,2,0,0,1,213.94,247.17Z" style="fill:#263238"></path><path d="M215.17,251.3v27H259.4v-27a.92.92,0,0,0-.92-.92H216.09A.92.92,0,0,0,215.17,251.3Z" style="fill:#fff;opacity:0.9"></path><polygon points="257.33 257.49 257.33 252.44 252.29 252.44 252.29 253.44 255 253.44 237.28 263.9 219.57 253.44 222.28 253.44 222.28 252.44 217.24 252.44 217.24 257.49 218.24 257.49 218.24 253.82 236.3 264.48 218.24 275.14 218.24 271.47 217.24 271.47 217.24 276.52 222.28 276.52 222.28 275.52 219.57 275.52 237.28 265.06 255 275.52 252.29 275.52 252.29 276.52 257.33 276.52 257.33 271.47 256.33 271.47 256.33 275.14 238.27 264.48 256.33 253.82 256.33 257.49 257.33 257.49" style="fill:#FF725E"></polygon><rect x="271.34" y="248.61" width="19.23" height="34.29" rx="1.81" style="fill:#263238"></rect><rect x="273.9" y="251.18" width="14.1" height="26.6" rx="0.92" style="fill:#fff;opacity:0.9"></rect><circle cx="280.95" cy="280.02" r="1.07" style="fill:#fff;opacity:0.9"></circle><polygon points="286.8 255.56 286.8 252.36 284.17 252.36 284.17 253.36 285.51 253.36 280.89 263.29 276.28 253.36 277.62 253.36 277.62 252.36 275 252.36 275 255.56 276 255.56 276 255.12 280.34 264.48 276 273.83 276 273.4 275 273.4 275 276.6 277.62 276.6 277.62 275.6 276.28 275.6 280.89 265.67 285.51 275.6 284.17 275.6 284.17 276.6 286.8 276.6 286.8 273.4 285.8 273.4 285.8 273.83 281.45 264.48 285.8 255.12 285.8 255.56 286.8 255.56" style="fill:#FF725E"></polygon></g><g id="freepik--icon-1--inject-17"><circle cx="255.36" cy="191.07" r="21.06" style="fill:#FF725E"></circle><circle cx="255.36" cy="191.07" r="21.06" style="fill:#fff;opacity:0.9"></circle><path d="M267.73,189A17.53,17.53,0,0,0,243,189l-2.12-2.12a20.53,20.53,0,0,1,29,0Z" style="fill:#263238"></path><path d="M263.45,193.33a11.46,11.46,0,0,0-16.18,0l-2.12-2.12a14.46,14.46,0,0,1,20.42,0Z" style="fill:#263238"></path><path d="M259.18,197.59a5.41,5.41,0,0,0-7.65,0l-2.12-2.12a8.41,8.41,0,0,1,11.89,0Z" style="fill:#263238"></path><path d="M256.81,200a2.05,2.05,0,1,1-2.9,0A2.06,2.06,0,0,1,256.81,200Z" style="fill:#263238"></path><path d="M255.36,168a23.07,23.07,0,1,0,23.06,23.07A23.09,23.09,0,0,0,255.36,168Zm0,4a19,19,0,0,1,12,4.26L240.55,203a19,19,0,0,1,14.81-31Zm0,38.13a19,19,0,0,1-12-4.26l26.79-26.78a19,19,0,0,1-14.81,31Z" style="fill:#FF725E"></path></g><g id="freepik--Character--inject-17"><polygon points="369.37 384.15 373.06 402.16 366.71 402.67 360.52 384.85 369.37 384.15" style="fill:#ffb573"></polygon><path d="M372.6,399.62l-6.39,2.65a.63.63,0,0,0-.39.7l1.13,6.57a1.07,1.07,0,0,0,1.23.88.79.79,0,0,0,.22-.06c2.65-1.14,5-2.26,8.28-3.62,3.92-1.61,3.12-.73,7.76-2.56,2.79-1.11,2-4.47.76-4.14-5.67,1.53-7.9.53-10.77-.55A2.58,2.58,0,0,0,372.6,399.62Z" style="fill:#263238"></path><polygon points="371.64 395.24 369.37 384.15 360.52 384.85 364.46 396.19 371.64 395.24" style="opacity:0.1"></polygon><polygon points="321.22 384.38 323.07 404.91 316.5 403.67 312.35 384.38 321.22 384.38" style="fill:#ffb573"></polygon><path d="M322.66,401.67l-7,.36a.64.64,0,0,0-.6.53L314,409.17a1.07,1.07,0,0,0,.87,1.25l.22,0c2.9-.2,5.46-.48,9.07-.65,4.25-.21,3.2.35,8.2.18,3-.11,3.4-3.56,2.12-3.67-5.89-.45-7.66-2.15-10-4.13A2.56,2.56,0,0,0,322.66,401.67Z" style="fill:#263238"></path><polygon points="321.22 384.38 312.35 384.38 314.95 396.46 322.31 396.46 321.22 384.38" style="opacity:0.1"></polygon><path d="M344.35,238.3s8.78,37.37,27.83,154.33h-10s-19.37-44.93-20.65-70q-.06-1.12-.06-2.19a26.74,26.74,0,0,0-2.74-11.54l-.05-.11c-6.32-12.94-19.82-43.87-19-70.48Z" style="fill:#FF725E"></path><path d="M334.5,299.74a165,165,0,0,0,.79-46.11L325.85,255l-2.51,12.57A206.67,206.67,0,0,0,334.5,299.74Z" style="opacity:0.2"></path><path d="M339.35,239.88s-22.5,107.75-16.17,153.75l-10-.33s-10.8-44-5.71-68.52c.21-1,.44-1.94.7-2.86a25.85,25.85,0,0,0,.51-12.05l0-.13c-3-14.9-8-50.43,5.24-70.61Z" style="fill:#FF725E"></path><path d="M322,149.36s3-13.64-7-8.85.4,12.86,4.15,11.91S322,149.36,322,149.36Z" style="fill:#263238"></path><path d="M321,149.38s-6.47,1.55-9.67-1.7c1.38,2.71,5,4.85,7.22,4.81l2.12-1.9Z" style="opacity:0.7000000000000001"></path><path d="M319.16,152.42s-10,3.87-10.32.08S314.48,153.54,319.16,152.42Z" style="fill:#263238"></path><path d="M317.91,154.75s-1.91-2.67,1.17-4.92,6.58.42,6.58.42Z" style="fill:#FF725E"></path><path d="M337.29,151.2a11.07,11.07,0,0,1,7.55,9.83c.58,7.85-4.84,6.28-4.84,6.28Z" style="fill:#263238"></path><path d="M369.63,174.86l-1.24-.1a2.38,2.38,0,0,0-2.51,2l-2.05,15.13a2.09,2.09,0,0,0,1.92,2.39l.86.07Z" style="fill:#263238"></path><path d="M373.28,194.92l-6.54-.54a2.08,2.08,0,0,1-1.91-2.39l2.05-15.13a2.38,2.38,0,0,1,2.51-2l6.54.54a2.08,2.08,0,0,1,1.91,2.39l-2,15.13A2.36,2.36,0,0,1,373.28,194.92Z" style="fill:#FF725E"></path><path d="M370.62,180l-1.24-.11a.82.82,0,0,1-.76-.94l.16-1.25a1,1,0,0,1,1-.8L371,177a.83.83,0,0,1,.76.94l-.17,1.25A.94.94,0,0,1,370.62,180Z" style="fill:#fff;opacity:0.5"></path><path d="M364.92,202.05l.92-5.09,3.07-7.86a3.07,3.07,0,0,1,2.86-2h.39a3.08,3.08,0,0,1,2.71,1.63l.93,1.76a3.05,3.05,0,0,1-.31,3.36l-1.26,1.56a3.08,3.08,0,0,1-1.18.9l-3.38,1.45-.08,4.91Z" style="fill:#ffb573"></path><path d="M370,200.26s.75,22.37-5.41,22.37c-7.18,0-18.25-9.25-19.59-18a64.75,64.75,0,0,1-.93-13.56s1.93-.77,17.18,21.31l3.5-12.58Z" style="fill:#263238"></path><path d="M345,204.63c.63,4.13,3.43,8.36,7,11.69a58.68,58.68,0,0,0-5.79-19h-2C344.31,199.28,344.56,201.74,345,204.63Z" style="opacity:0.7000000000000001"></path><path d="M306.86,191a201.36,201.36,0,0,1,5.64,50s22.84,3.34,33.17.17c0,0,8.33-45.67-3.17-51.17-12.23-5.85-31.23-1-35.12.13A.75.75,0,0,0,306.86,191Z" style="fill:#263238"></path><path d="M307.33,190.53a1,1,0,0,0-1.15.25c-1.84,1.94-8.27,10.11-9,30.18-.06,1.76.18,3.5,3.68,5s8-13.66,11.83-23.25C315.89,194.67,309.47,191.38,307.33,190.53Z" style="fill:#263238"></path><path d="M301.76,200.9l-2.6,4.8a76,76,0,0,0-2,15.26c-.06,1.76.18,3.5,3.68,5,2.15.93,4.67-4.43,7.18-10.92C306.7,207.67,301.76,200.9,301.76,200.9Z" style="opacity:0.7000000000000001"></path><path d="M323.5,185.51c-2.46.12-9.68.43-4.12,9.37s7.44,1.5,9.94.75,5.05-.87,7.25,1.31,5.18-.56,2.06-5.93S332.82,185,323.5,185.51Z" style="fill:#263238"></path><path d="M323.5,185.51c-2.46.12-9.68.43-4.12,9.37s7.44,1.5,9.94.75,5.05-.87,7.25,1.31,5.18-.56,2.06-5.93S332.82,185,323.5,185.51Z" style="fill:#fff;opacity:0.7000000000000001"></path><path d="M325.67,186.88c-2.49,0-8.75-.78-5.25,3.75,3.81,4.93,11.92,7.17,11.92,7.17a8.35,8.35,0,0,0,2.33-8.17C333.59,185.38,328.58,186.87,325.67,186.88Z" style="fill:#ffb573"></path><path d="M330.87,194.93c-15-4.42-9.74-7.81-9.74-7.81,2.27-3.7,1.75-10.11,1.09-14.32l8.64,8c-.82,2.95-1.16,4.66,1.57,6.24C332.43,187.07,334.76,188.34,330.87,194.93Z" style="fill:#ffb573"></path><path d="M330.28,183.77a12.62,12.62,0,0,1,.58-2.94l-7.77-7.22-.5.62S323.83,181.17,330.28,183.77Z" style="opacity:0.1"></path><path d="M320.43,160.53c-.49,8.29-.88,11.79,2.76,16.52,5.48,7.11,15.77,5.9,18.73-2.07,2.67-7.18,3-19.53-4.63-23.78a11.32,11.32,0,0,0-15.42,4.32A11.2,11.2,0,0,0,320.43,160.53Z" style="fill:#ffb573"></path><path d="M338,166.81a18.08,18.08,0,0,0,2.32,4.36,2.87,2.87,0,0,1-2.41.41Z" style="fill:#ed893e"></path><path d="M331.8,161.58a.34.34,0,0,1-.12-.12.33.33,0,0,1,.12-.45h0a3.83,3.83,0,0,1,3.54-.2.33.33,0,0,1-.3.58,3.23,3.23,0,0,0-2.93.19A.31.31,0,0,1,331.8,161.58Z" style="fill:#263238"></path><path d="M343.81,162.3a.3.3,0,0,1-.16-.05,3.21,3.21,0,0,0-2.9-.37.34.34,0,0,1-.44-.17h0a.34.34,0,0,1,.18-.44,3.9,3.9,0,0,1,3.52.42.34.34,0,0,1,.12.46.32.32,0,0,1-.32.15Z" style="fill:#263238"></path><path d="M333.24,165.6c0,.67.33,1.23.78,1.24s.8-.53.81-1.21-.33-1.22-.77-1.23S333.25,164.92,333.24,165.6Z" style="fill:#263238"></path><path d="M340.87,165.76c0,.67.33,1.22.77,1.23s.8-.53.82-1.21-.33-1.22-.77-1.23S340.87,165.07,340.87,165.76Z" style="fill:#263238"></path><path d="M341.5,164.58l1.62-.43S342.26,165.4,341.5,164.58Z" style="fill:#263238"></path><path d="M333.87,164.43l1.62-.43S334.63,165.24,333.87,164.43Z" style="fill:#263238"></path><path d="M336.13,174.37a6.73,6.73,0,0,0,1.09-.12.19.19,0,0,0,.15-.22h0a.19.19,0,0,0-.22-.15,5.22,5.22,0,0,1-4.53-1.18.18.18,0,0,0-.27,0,.19.19,0,0,0,0,.27A5.45,5.45,0,0,0,336.13,174.37Z" style="fill:#263238"></path><path d="M321.42,166.81a4.48,4.48,0,0,0,3.42-3.93c.5-3.42,3.49-9.67,12.53-8.25s3.45-3.77,2.63-4.89c-2.31-3.14-9.38-5.46-19,1.46-1.79,1.29-12.33,7.1-1.62,21.6C320.32,174.07,322.22,174.72,321.42,166.81Z" style="fill:#263238"></path><path d="M317.69,166.81a6.06,6.06,0,0,0,2.47,3.92c1.75,1.21,3.32-.18,3.42-2.2.09-1.81-.71-4.63-2.75-5a2.75,2.75,0,0,0-3.17,2.24A2.81,2.81,0,0,0,317.69,166.81Z" style="fill:#ffb573"></path><path d="M297.15,206l1.44-7.75L295.66,193a2.84,2.84,0,0,1-.33-1.85l.06-.39a2.87,2.87,0,0,1,3.71-2.27l4.48,1.46a2.88,2.88,0,0,1,2,2.87l-.12,2.24a3.6,3.6,0,0,1-1.29,2.58l-1.4,1.16,1.47,8.13Z" style="fill:#ffb573"></path><path d="M297.34,202.2l6.66.45s6.17,23-3.16,23.72C292.19,227,297.34,202.2,297.34,202.2Z" style="fill:#263238"></path></g></svg>